HIERARCHY
ROOT Hips
{
    OFFSET 0.000000 0.000000 0.000000
    CHANNELS 6 Xposition Yposition Zposition Zrotation Xrotation Yrotation
    JOINT Spine
    {
        OFFSET -0.000000 14.517291 0.000000
        CHANNELS 3 Zrotation Xrotation Yrotation
        JOINT Spine1
        {
            OFFSET -0.000000 37.558300 0.000000
            CHANNELS 3 Zrotation Xrotation Yrotation
            JOINT Neck
            {
                OFFSET -0.000000 37.404057 3.400369
                CHANNELS 3 Zrotation Xrotation Yrotation
                JOINT Head
                {
                    OFFSET -0.000000 24.785618 -3.540803
                    CHANNELS 3 Zrotation Xrotation Yrotation
                    End Site
                    {
                        OFFSET -0.000000 35.408028 0.000000
                    }
                }
            }
            JOINT LeftShoulder
            {
                OFFSET 6.992933 33.973492 -0.192664
                CHANNELS 3 Zrotation Xrotation Yrotation
                JOINT LeftArm
                {
                    OFFSET 21.527611 0.000000 0.000000
                    CHANNELS 3 Zrotation Xrotation Yrotation
                    JOINT LeftForeArm
                    {
                        OFFSET 56.353916 0.000000 0.000000
                        CHANNELS 3 Zrotation Xrotation Yrotation
                        JOINT LeftHand
                        {
                            OFFSET 47.774071 0.000000 0.000000
                            CHANNELS 3 Zrotation Xrotation Yrotation
                            End Site
                            {
                                OFFSET 26.556021 0.000000 0.000000
                            }
                        }
                    }
                }
            }
            JOINT RightShoulder
            {
                OFFSET -7.065357 33.973492 -0.192664
                CHANNELS 3 Zrotation Xrotation Yrotation
                JOINT RightArm
                {
                    OFFSET -21.527611 0.000000 0.000000
                    CHANNELS 3 Zrotation Xrotation Yrotation
                    JOINT RightForeArm
                    {
                        OFFSET -56.353916 0.000000 0.000000
                        CHANNELS 3 Zrotation Xrotation Yrotation
                        JOINT RightHand
                        {
                            OFFSET -47.774071 0.000000 0.000000
                            CHANNELS 3 Zrotation Xrotation Yrotation
                            End Site
                            {
                                OFFSET -26.556021 0.000000 0.000000
                            }
                        }
                    }
                }
            }
        }
    }
    JOINT LeftUpLeg
    {
        OFFSET 17.704014 0.000000 0.000000
        CHANNELS 3 Zrotation Xrotation Yrotation
        JOINT LeftLeg
        {
            OFFSET -0.000000 -81.181816 0.000000
            CHANNELS 3 Zrotation Xrotation Yrotation
            JOINT LeftFoot
            {
                OFFSET -0.000000 -62.821102 0.000000
                CHANNELS 3 Zrotation Xrotation Yrotation
                JOINT LeftToeBase
                {
                    OFFSET -0.000000 -11.507608 26.556021
                    CHANNELS 3 Zrotation Xrotation Yrotation
                    End Site
                    {
                        OFFSET -0.000000 0.000000 7.081605
                    }
                }
            }
        }
    }
    JOINT RightUpLeg
    {
        OFFSET -17.704014 0.000000 0.000000
        CHANNELS 3 Zrotation Xrotation Yrotation
        JOINT RightLeg
        {
            OFFSET -0.000000 -81.181816 0.000000
            CHANNELS 3 Zrotation Xrotation Yrotation
            JOINT RightFoot
            {
                OFFSET -0.000000 -62.821102 0.000000
                CHANNELS 3 Zrotation Xrotation Yrotation
                JOINT RightToeBase
                {
                    OFFSET -0.000000 -11.507608 26.556021
                    CHANNELS 3 Zrotation Xrotation Yrotation
                    End Site
                    {
                        OFFSET -0.000000 0.000000 7.081605
                    }
                }
            }
        }
    }
}
MOTION
Frames:    11
Frame Time:    0.008333
-8.940321    151.634720    -36.058231    -1.793174    -0.500979    9.103845    0.287244    1.090575    7.396885    0.125794    1.311800    2.465755    -1.358988    3.574614    -10.821520    10.936908    -5.722097    -9.026395    -1.491313    6.505222    -6.755754    -44.238525    17.132616    -31.020275    1.152174    -30.931358    -125.839890    -7.017504    -28.403374    -10.665604    -1.622607    11.768953    0.702719    39.103931    8.858236    57.084702    -29.103800    -29.090782    56.880444    14.657772    -9.573668    34.587692    13.288843    -28.476715    15.074032    -18.495632    23.725876    3.181021    11.378898    3.569987    46.647476    0.000000    0.000000    0.000000    0.201967    9.522621    -23.403328    1.547246    26.482378    -6.523712    6.818504    -31.177540    -5.169768    0.000000    0.000000    0.000000    
-8.930644    151.637527    -36.076565    -1.807196    -0.505310    9.099371    0.291172    1.094599    7.401094    0.125565    1.304275    2.467186    -1.370058    3.568753    -10.821367    10.950354    -5.718830    -9.022604    -1.488401    6.498180    -6.756331    -44.249123    17.134012    -31.011343    1.191368    -30.940271    -125.819969    -6.983041    -28.350195    -10.638589    -1.615282    11.764978    0.694500    39.100475    8.846588    57.083538    -29.090403    -29.082336    56.891788    14.660985    -9.568507    34.577778    13.301077    -28.475983    15.069258    -18.498756    23.715151    3.179181    11.366478    3.572521    46.663315    0.000000    0.000000    0.000000    0.208786    9.530644    -23.380707    1.567626    26.455017    -6.578485    6.839788    -31.158693    -5.118797    0.000000    0.000000    0.000000    
-8.913408    151.635193    -36.088387    -1.809252    -0.511990    9.102448    0.291699    1.093248    7.394677    0.123816    1.309643    2.465069    -1.386281    3.567991    -10.824687    10.957752    -5.719558    -9.022692    -1.501608    6.503101    -6.742877    -44.237286    17.129423    -31.003597    1.182843    -30.936623    -125.821564    -7.060340    -28.355715    -10.621614    -1.628912    11.773422    0.694652    39.111935    8.836581    57.093143    -29.084661    -29.085632    56.901165    14.657947    -9.572689    34.582752    13.290707    -28.476873    15.083341    -18.482403    23.723373    3.171273    11.371533    3.571280    46.655586    0.000000    0.000000    0.000000    0.204894    9.542799    -23.367491    1.581328    26.439280    -6.600834    6.836339    -31.168100    -5.124846    0.000000    0.000000    0.000000    
-8.900697    151.632935    -36.103683    -1.818676    -0.516505    9.098089    0.291412    1.093589    7.398910    0.132988    1.301754    2.466397    -1.412256    3.556933    -10.823631    10.971785    -5.686250    -9.018837    -1.513644    6.499098    -6.757627    -44.244198    17.115067    -30.978489    1.185766    -30.935442    -125.819450    -7.065117    -28.349163    -10.620497    -1.638132    11.766142    0.698966    39.124615    8.824439    57.073303    -29.047779    -29.078691    56.939697    14.622651    -9.586233    34.568344    13.298532    -28.477573    15.094749    -18.485435    23.724878    3.158419    11.388227    3.584845    46.662128    0.000000    0.000000    0.000000    0.213478    9.548512    -23.333866    1.594626    26.420059    -6.589359    6.798370    -31.178869    -5.170386    0.000000    0.000000    0.000000    
-8.882544    151.630051    -36.116642    -1.825713    -0.526563    9.098859    0.302668    1.097547    7.392519    0.120914    1.300711    2.464429    -1.399474    3.565019    -10.812317    10.951263    -5.696101    -9.011616    -1.517019    6.489760    -6.741005    -44.244297    17.130836    -30.976250    1.187309    -30.944017    -125.812233    -7.040104    -28.356695    -10.636234    -1.642144    11.750166    0.708535    39.129360    8.834547    57.056435    -29.048023    -29.092852    56.951843    14.627362    -9.598110    34.556931    13.298192    -28.474144    15.091019    -18.482807    23.728037    3.154834    11.391907    3.576289    46.651779    0.000000    0.000000    0.000000    0.212141    9.555246    -23.311111    1.619864    26.417509    -6.580290    6.771680    -31.184193    -5.230402    0.000000    0.000000    0.000000    
-8.862660    151.626328    -36.127235    -1.828209    -0.530169    9.098526    0.301891    1.092520    7.398612    0.117316    1.298334    2.466488    -1.405442    3.561500    -10.813075    10.959380    -5.674673    -9.012117    -1.514946    6.485892    -6.747520    -44.260265    17.118940    -30.965799    1.160228    -30.919271    -125.825302    -7.035151    -28.377996    -10.633287    -1.644346    11.746398    0.705494    39.146114    8.820002    57.042259    -29.025620    -29.086164    56.980629    14.623538    -9.595358    34.554932    13.290954    -28.472233    15.087705    -18.488556    23.719286    3.174119    11.407932    3.571861    46.651466    0.000000    0.000000    0.000000    0.208750    9.559032    -23.306770    1.614314    26.412165    -6.560313    6.760427    -31.194904    -5.232674    0.000000    0.000000    0.000000    
-8.844991    151.623291    -36.139603    -1.833146    -0.537711    9.104730    0.300485    1.096939    7.392711    0.123777    1.290560    2.464466    -1.417413    3.559582    -10.807386    10.964208    -5.657193    -9.005456    -1.525877    6.497378    -6.729654    -44.258400    17.124285    -30.973866    0.945735    -30.851988    -125.890640    -7.053842    -28.660278    -10.882538    -1.650598    11.743927    0.698540    39.155212    8.814657    57.041718    -29.021896    -29.071699    56.990005    14.611316    -9.584457    34.536232    13.285350    -28.471418    15.090157    -18.482588    23.723898    3.160169    11.414064    3.572024    46.643047    0.000000    0.000000    0.000000    0.211526    9.567822    -23.292244    1.615536    26.403231    -6.533126    6.766507    -31.206993    -5.264587    0.000000    0.000000    0.000000    
-8.827463    151.619186    -36.147625    -1.835106    -0.546398    9.104503    0.300715    1.089031    7.393665    0.116340    1.299124    2.464840    -1.384069    3.572374    -10.797954    10.919586    -5.670197    -9.006938    -1.523433    6.494156    -6.726382    -44.265339    17.108517    -30.968649    0.922309    -30.813080    -125.904411    -7.018049    -28.663170    -10.885062    -1.647032    11.739222    0.704700    39.150536    8.813545    57.028500    -29.024532    -29.081970    56.995590    14.611571    -9.593353    34.530342    13.277308    -28.464228    15.100138    -18.477058    23.722454    3.172236    11.446071    3.586357    46.615059    0.000000    0.000000    0.000000    0.212569    9.579176    -23.297348    1.613679    26.389965    -6.553218    6.764007    -31.214722    -5.250196    0.000000    0.000000    0.000000    
-8.807085    151.614136    -36.159672    -1.835623    -0.549147    9.109508    0.297063    1.078171    7.397046    0.121023    1.306390    2.465904    -1.369246    3.573858    -10.799273    10.885518    -5.666402    -9.016911    -1.528822    6.496196    -6.729568    -44.270470    17.115396    -30.972305    0.942464    -30.842129    -125.893471    -7.078554    -28.653521    -10.885957    -1.653625    11.728546    0.694294    39.152309    8.825419    57.019428    -29.030327    -29.095387    57.001217    14.644211    -9.591286    34.543327    13.271635    -28.468252    15.101854    -18.485405    23.727232    3.172765    11.451105    3.579871    46.617008    0.000000    0.000000    0.000000    0.207255    9.577791    -23.299656    1.599178    26.398239    -6.512140    6.753808    -31.220997    -5.268231    0.000000    0.000000    0.000000    
-8.790491    151.613739    -36.170658    -1.840601    -0.555993    9.112390    0.302555    1.070383    7.396454    0.118588    1.314486    2.465740    -1.380340    3.590854    -10.797312    10.903672    -5.673708    -9.009628    -1.537789    6.487337    -6.722839    -44.264610    17.127665    -30.966938    0.924307    -30.846184    -125.907272    -7.070971    -28.688942    -10.888152    -1.655214    11.723330    0.690917    39.144535    8.833019    57.012299    -29.048176    -29.094122    57.001305    14.641675    -9.581881    34.531109    13.265720    -28.465300    15.105415    -18.477791    23.724096    3.174680    11.453883    3.582120    46.604942    0.000000    0.000000    0.000000    0.207347    9.575365    -23.281517    1.602606    26.407892    -6.580382    6.794736    -31.214695    -5.197669    0.000000    0.000000    0.000000    
-8.772048    151.613235    -36.177742    -1.840936    -0.568402    9.118133    0.303495    1.073775    7.396263    0.115926    1.316006    2.465693    -1.374350    3.597249    -10.799049    10.888751    -5.673816    -9.015059    -1.542253    6.489907    -6.723310    -44.271572    17.094894    -30.958107    0.896043    -30.793917    -125.922256    -7.085331    -28.683096    -10.879815    -1.658592    11.711075    0.683014    39.155704    8.837518    57.002037    -29.043633    -29.088537    57.014263    14.629834    -9.579783    34.514927    13.259963    -28.455469    15.110185    -18.477863    23.724039    3.154822    11.473023    3.598795    46.595631    0.000000    0.000000    0.000000    0.197693    9.587818    -23.260044    1.630307    26.405746    -6.618966    6.802802    -31.212534    -5.203554    0.000000    0.000000    0.000000    
